<svg width="361" height="934" viewBox="0 0 361 934" fill="none" xmlns="http://www.w3.org/2000/svg">
<g opacity="0.5">
<path d="M461.264 160.049C461.264 205.4 445 246.026 418.042 277.079C416.46 278.527 414.941 280.039 413.422 281.551C410.385 284.574 407.474 287.723 404.689 290.936C378.174 321.358 362.796 359.843 361.151 400.155C359.505 359.906 344.128 321.358 317.612 290.936C314.828 287.723 311.917 284.574 308.879 281.551C307.361 280.039 305.842 278.527 304.26 277.079C277.365 246.089 261.101 205.4 261.101 160.049C261.101 92.0866 299.957 30.0447 361.214 0C422.471 29.9817 461.264 92.0866 461.264 160.049Z" fill="#BAC5C3"/>
<path d="M123.454 292.762C123.454 350.773 151.868 405.194 199.519 438.577C206.67 442.545 213.695 446.765 220.593 451.3C272.168 485.439 311.34 535.198 332.286 593.209C332.476 593.776 332.729 594.343 332.919 594.91C343.171 623.569 348.74 653.676 349.499 684.162V488.462C349.309 480.715 348.803 472.967 347.98 465.22C345.575 442.734 340.513 420.562 332.919 399.21C300.518 307.942 226.604 243.129 139.781 218.312C129.023 241.68 123.454 267.064 123.454 292.762Z" fill="#BAC5C3"/>
<path d="M720.461 590.624C715.462 543.762 699.072 498.789 672.683 459.675C664.393 459.36 656.103 459.36 647.876 459.738C629.967 460.556 612.185 463.013 594.719 467.17L594.782 467.296L594.529 467.233C588.137 468.745 581.809 470.508 575.481 472.398C497.517 496.459 430.627 552.958 395.948 631.817C393.101 638.242 390.506 644.856 388.101 651.532C382.279 667.972 377.913 684.852 375.128 702.11C373.989 709.228 373.103 716.408 372.471 723.526C377.153 724.66 381.9 725.605 386.646 726.297C403.099 728.817 419.806 729.069 436.323 727.053C438.158 726.801 439.993 726.549 441.828 726.297C446.131 725.29 450.498 724.471 454.991 723.778C516.122 709.543 565.292 664.507 584.72 605.048C552.383 632.384 511.376 647.312 468.976 647.249C465.812 647.249 462.648 647.186 459.484 646.997C491.252 591.128 550.801 556.674 615.286 556.737C618.386 556.737 621.487 556.8 624.525 556.989C624.588 556.989 624.715 556.989 624.778 556.989C624.715 557.115 624.588 557.304 624.525 557.43C624.651 560.264 624.715 563.162 624.715 565.996C624.715 644.667 572.886 714.015 497.264 736.753C494.226 737.635 491.125 738.517 488.024 739.273C470.369 744.564 453.599 752.563 438.411 763.019C433.918 766.105 429.551 769.38 425.311 772.845C421.072 776.309 417.021 780.025 413.035 783.993C400.821 796.15 390.443 810.007 382.153 825.124C370.129 847.106 362.978 871.419 361.08 896.361C357.852 853.908 339.437 814.038 309.125 783.993C305.201 780.088 301.151 776.372 296.848 772.845C292.671 769.38 288.305 766.105 283.748 763.019C268.561 752.626 251.791 744.626 234.072 739.273C230.971 738.517 227.87 737.698 224.832 736.753C149.146 714.015 97.3814 644.667 97.3814 565.996C97.3814 563.099 97.4447 560.264 97.5712 557.43C97.4447 557.304 97.3814 557.115 97.3181 556.989H97.5712C100.609 556.8 103.71 556.737 106.81 556.737C171.232 556.8 230.718 591.254 262.549 646.997C259.385 647.186 256.22 647.249 253.056 647.249C210.657 647.312 169.65 632.384 137.313 605.048C156.677 664.507 205.911 709.543 267.042 723.778C271.472 724.471 275.838 725.29 280.205 726.297C282.04 726.549 283.875 726.801 285.71 727.053C302.227 729.069 318.934 728.817 335.387 726.297C340.196 725.542 344.943 724.66 349.562 723.526C348.929 716.408 348.107 709.228 346.904 702.11C344.12 684.915 339.753 667.972 333.931 651.532C331.527 644.793 328.932 638.242 326.084 631.817C291.406 552.895 224.516 496.459 146.552 472.398C140.287 470.445 133.959 468.745 127.504 467.233L127.251 467.296L127.314 467.17C109.848 463.076 92.0657 460.556 74.1567 459.738C65.93 459.36 57.6399 459.36 49.3499 459.675C22.9611 498.789 6.50767 543.762 1.57163 590.624C-1.97219 624.133 0.495846 657.957 8.78586 690.584V690.647C17.3923 718.235 32.6434 743.304 53.2102 763.711C57.1337 767.617 61.2471 771.333 65.487 774.86C90.6101 795.646 121.049 809.188 153.386 813.975H153.45C156.994 814.29 160.474 814.731 164.018 815.235C220.339 822.982 273.117 846.917 315.896 884.205C332.413 898.629 347.221 914.88 360.067 932.642C360.953 933.776 360.89 933.776 360.953 933.776C361.016 933.776 360.953 933.776 361.839 932.642C408.288 868.458 479.102 826.005 557.825 815.235C561.306 814.731 564.849 814.353 568.393 813.975H568.456C600.794 809.188 631.233 795.646 656.356 774.86C660.596 771.333 664.709 767.617 668.633 763.711C689.136 743.304 704.387 718.235 713.057 690.647V690.584C721.537 657.957 723.942 624.07 720.461 590.624Z" fill="#BAC5C3"/>
</g>
</svg>
