<svg width="33" height="42" viewBox="0 0 33 42" fill="none" xmlns="http://www.w3.org/2000/svg">
<path d="M26.6855 13.0475C26.6855 15.6329 25.4191 18.0582 23.2955 19.546C22.9739 19.7228 22.6609 19.9109 22.3563 20.113C20.0577 21.6345 18.312 23.8521 17.3784 26.4375C17.37 26.4627 17.3587 26.488 17.3502 26.5133C16.8934 27.7905 16.6452 29.1323 16.6113 30.491V21.7692C16.6198 21.424 16.6423 21.0787 16.679 20.7334C16.7862 19.7313 17.0118 18.7432 17.3502 17.7915C18.7942 13.724 22.0884 10.8355 25.9578 9.72949C26.4401 10.7709 26.6855 11.9022 26.6855 13.0475Z" fill="white"/>
<path d="M20.5569 7.1329C20.5569 9.15403 19.832 10.9646 18.6306 12.3485C18.5601 12.4131 18.4924 12.4805 18.4247 12.5478C18.2893 12.6826 18.1596 12.8229 18.0355 12.9661C16.8538 14.3219 16.1685 16.0371 16.0951 17.8337C16.0218 16.0399 15.3365 14.3219 14.1548 12.9661C14.0307 12.8229 13.9009 12.6826 13.7656 12.5478C13.6979 12.4805 13.6302 12.4131 13.5597 12.3485C12.361 10.9674 11.6362 9.15403 11.6362 7.1329C11.6362 4.10401 13.3679 1.339 16.098 0C18.828 1.33619 20.5569 4.10401 20.5569 7.1329Z" fill="white"/>
<path d="M5.50195 13.0475C5.50195 15.6329 6.76827 18.0582 8.89196 19.546C9.21065 19.7228 9.52371 19.9109 9.83112 20.113C12.1297 21.6345 13.8754 23.8521 14.809 26.4375C14.8174 26.4627 14.8287 26.488 14.8372 26.5133C15.2941 27.7905 15.5422 29.1323 15.5761 30.491V21.7692C15.5676 21.424 15.5451 21.0787 15.5084 20.7334C15.4012 19.7313 15.1756 18.7432 14.8372 17.7915C13.3932 13.724 10.0991 10.8355 6.22959 9.72949C5.75014 10.7709 5.50195 11.9022 5.50195 13.0475Z" fill="white"/>
<path d="M32.1087 26.3223C31.8859 24.2338 31.1555 22.2295 29.9794 20.4863C29.6099 20.4722 29.2405 20.4722 28.8738 20.4891C28.0757 20.5256 27.2832 20.6351 26.5048 20.8203L26.5076 20.8259L26.4963 20.8231C26.2115 20.8905 25.9294 20.9691 25.6474 21.0533C22.1728 22.1256 19.1917 24.6436 17.6462 28.1581C17.5193 28.4445 17.4036 28.7392 17.2965 29.0368C17.037 29.7694 16.8424 30.5217 16.7183 31.2909C16.6675 31.6081 16.6281 31.9281 16.5999 32.2453C16.8086 32.2958 17.0201 32.3379 17.2316 32.3688C17.9649 32.4811 18.7094 32.4923 19.4456 32.4025C19.5273 32.3913 19.6091 32.3801 19.6909 32.3688C19.8827 32.3239 20.0773 32.2874 20.2775 32.2565C23.002 31.6221 25.1933 29.615 26.0592 26.9651C24.618 28.1834 22.7904 28.8487 20.9008 28.8459C20.7598 28.8459 20.6188 28.8431 20.4778 28.8347C21.8936 26.3447 24.5475 24.8092 27.4214 24.8121C27.5596 24.8121 27.6978 24.8149 27.8331 24.8233C27.836 24.8233 27.8416 24.8233 27.8444 24.8233C27.8416 24.8289 27.836 24.8373 27.8331 24.8429C27.8388 24.9692 27.8416 25.0984 27.8416 25.2247C27.8416 28.7308 25.5318 31.8214 22.1615 32.8348C22.0261 32.8741 21.8879 32.9134 21.7497 32.9471C20.9629 33.1829 20.2155 33.5394 19.5386 34.0054C19.3384 34.1429 19.1438 34.2889 18.9548 34.4433C18.7659 34.5977 18.5854 34.7633 18.4077 34.9401C17.8634 35.4819 17.4008 36.0995 17.0314 36.7732C16.4955 37.7529 16.1768 38.8364 16.0922 39.9481C15.9484 38.0561 15.1277 36.2791 13.7767 34.9401C13.6019 34.7661 13.4214 34.6005 13.2296 34.4433C13.0435 34.2889 12.8489 34.1429 12.6458 34.0054C11.9689 33.5422 11.2215 33.1857 10.4318 32.9471C10.2937 32.9134 10.1555 32.8769 10.0201 32.8348C6.647 31.8214 4.33999 28.7308 4.33999 25.2247C4.33999 25.0956 4.34281 24.9692 4.34845 24.8429C4.34281 24.8373 4.33999 24.8289 4.33717 24.8233H4.34845C4.48382 24.8149 4.62202 24.8121 4.76021 24.8121C7.63128 24.8149 10.2824 26.3504 11.701 28.8347C11.56 28.8431 11.419 28.8459 11.2779 28.8459C9.38833 28.8487 7.56078 28.1834 6.1196 26.9651C6.98261 29.615 9.17681 31.6221 11.9012 32.2565C12.0987 32.2874 12.2933 32.3239 12.4879 32.3688C12.5696 32.3801 12.6514 32.3913 12.7332 32.4025C13.4693 32.4923 14.2139 32.4811 14.9472 32.3688C15.1615 32.3351 15.373 32.2958 15.5789 32.2453C15.5507 31.9281 15.514 31.6081 15.4605 31.2909C15.3364 30.5245 15.1418 29.7694 14.8823 29.0368C14.7751 28.7364 14.6595 28.4445 14.5326 28.1581C12.987 24.6408 10.006 22.1256 6.53137 21.0533C6.25216 20.9663 5.97012 20.8905 5.68245 20.8231L5.67117 20.8259L5.67399 20.8203C4.89559 20.6379 4.10308 20.5256 3.30493 20.4891C2.93829 20.4722 2.56883 20.4722 2.19937 20.4863C1.02331 22.2295 0.290027 24.2338 0.0700429 26.3223C-0.0878943 27.8157 0.0220983 29.3231 0.391558 30.7772V30.78C0.77512 32.0095 1.45481 33.1267 2.37141 34.0363C2.54627 34.2103 2.72959 34.3759 2.91855 34.5331C4.03821 35.4595 5.39478 36.063 6.83596 36.2763H6.83878C6.99672 36.2904 7.15183 36.31 7.30977 36.3325C9.81984 36.6778 12.172 37.7445 14.0785 39.4063C14.8146 40.0491 15.4746 40.7733 16.0471 41.565C16.0866 41.6155 16.0837 41.6155 16.0866 41.6155C16.0894 41.6155 16.0866 41.6155 16.126 41.565C18.1962 38.7045 21.3521 36.8125 24.8605 36.3325C25.0157 36.31 25.1736 36.2932 25.3315 36.2763H25.3343C26.7755 36.063 28.1321 35.4595 29.2518 34.5331C29.4407 34.3759 29.624 34.2103 29.7989 34.0363C30.7127 33.1267 31.3924 32.0095 31.7787 30.78V30.7772C32.1567 29.3231 32.2638 27.8129 32.1087 26.3223Z" fill="white"/>
</svg>
