<svg width="328" height="308" viewBox="0 0 328 308" fill="none" xmlns="http://www.w3.org/2000/svg">
<g clip-path="url(#clip0_2589_3263)">
<path d="M215.803 61.4521C215.803 73.6288 209.869 85.0519 199.918 92.0591C198.412 92.892 196.945 93.7778 195.517 94.7298C184.747 101.896 176.567 112.34 172.193 124.517C172.153 124.636 172.1 124.755 172.061 124.874C169.92 130.89 168.757 137.209 168.598 143.608V102.53C168.638 100.904 168.743 99.2778 168.915 97.6516C169.417 92.9317 170.475 88.2778 172.061 83.7959C178.827 64.6384 194.262 51.0338 212.393 45.8247C214.653 50.7298 215.803 56.0579 215.803 61.4521Z" fill="white"/>
<path d="M187.087 33.5949C187.087 43.1142 183.69 51.6418 178.061 58.1598C177.73 58.4639 177.413 58.7812 177.096 59.0986C176.462 59.7332 175.854 60.3942 175.272 61.0685C169.735 67.4543 166.524 75.5324 166.18 83.994C165.837 75.5457 162.625 67.4543 157.088 61.0685C156.507 60.3942 155.899 59.7332 155.265 59.0986C154.947 58.7812 154.63 58.4639 154.3 58.1598C148.683 51.655 145.287 43.1142 145.287 33.5949C145.287 19.3293 153.401 6.30649 166.193 0C178.986 6.29327 187.087 19.3293 187.087 33.5949Z" fill="white"/>
<path d="M116.543 61.4521C116.543 73.6288 122.477 85.0519 132.428 92.0591C133.921 92.892 135.388 93.7778 136.828 94.7298C147.599 101.896 155.779 112.34 160.153 124.517C160.193 124.636 160.246 124.755 160.285 124.874C162.426 130.89 163.589 137.209 163.748 143.608V102.53C163.708 100.904 163.602 99.2778 163.431 97.6516C162.928 92.9317 161.871 88.2778 160.285 83.7959C153.519 64.6384 138.084 51.0338 119.953 45.8247C117.706 50.7298 116.543 56.0579 116.543 61.4521Z" fill="white"/>
<path d="M241.215 123.974C240.171 114.138 236.748 104.698 231.237 96.4875C229.506 96.4214 227.775 96.4214 226.057 96.5007C222.317 96.6726 218.603 97.1882 214.956 98.0608L214.969 98.0873L214.916 98.074C213.582 98.3913 212.26 98.7615 210.939 99.1582C194.658 104.209 180.689 116.068 173.447 132.621C172.853 133.969 172.311 135.358 171.809 136.759C170.593 140.21 169.681 143.753 169.099 147.376C168.862 148.87 168.677 150.377 168.544 151.871C169.522 152.109 170.513 152.307 171.505 152.453C174.941 152.981 178.429 153.034 181.878 152.611C182.262 152.558 182.645 152.506 183.028 152.453C183.927 152.241 184.839 152.069 185.777 151.924C198.543 148.936 208.811 139.483 212.868 127.002C206.115 132.74 197.552 135.873 188.698 135.86C188.037 135.86 187.376 135.847 186.715 135.807C193.349 124.08 205.785 116.848 219.251 116.861C219.898 116.861 220.546 116.875 221.18 116.914C221.194 116.914 221.22 116.914 221.233 116.914C221.22 116.941 221.194 116.98 221.18 117.007C221.207 117.602 221.22 118.21 221.22 118.805C221.22 135.318 210.397 149.875 194.605 154.647C193.97 154.832 193.323 155.018 192.675 155.176C188.988 156.287 185.486 157.966 182.315 160.161C181.376 160.808 180.464 161.496 179.579 162.223C178.694 162.95 177.848 163.73 177.015 164.563C174.465 167.115 172.298 170.024 170.566 173.197C168.055 177.811 166.562 182.914 166.166 188.15C165.492 179.239 161.646 170.87 155.316 164.563C154.497 163.743 153.651 162.963 152.752 162.223C151.88 161.496 150.968 160.808 150.017 160.161C146.845 157.979 143.343 156.3 139.643 155.176C138.995 155.018 138.348 154.846 137.713 154.647C121.908 149.875 111.098 135.318 111.098 118.805C111.098 118.197 111.111 117.602 111.138 117.007C111.111 116.98 111.098 116.941 111.085 116.914H111.138C111.772 116.875 112.42 116.861 113.067 116.861C126.52 116.875 138.942 124.106 145.59 135.807C144.929 135.847 144.268 135.86 143.607 135.86C134.753 135.873 126.19 132.74 119.437 127.002C123.481 139.483 133.762 148.936 146.528 151.924C147.453 152.069 148.365 152.241 149.277 152.453C149.66 152.506 150.043 152.558 150.426 152.611C153.876 153.034 157.364 152.981 160.8 152.453C161.805 152.294 162.796 152.109 163.761 151.871C163.628 150.377 163.457 148.87 163.205 147.376C162.624 143.766 161.712 140.21 160.496 136.759C159.994 135.344 159.452 133.969 158.858 132.621C151.616 116.055 137.647 104.209 121.366 99.1582C120.058 98.7483 118.737 98.3913 117.389 98.074L117.336 98.0873L117.349 98.0608C113.702 97.2014 109.988 96.6726 106.248 96.5007C104.53 96.4214 102.799 96.4214 101.068 96.4875C95.5571 104.698 92.1212 114.138 91.0904 123.974C90.3504 131.008 90.8658 138.108 92.5969 144.956V144.969C94.3942 150.76 97.5791 156.022 101.874 160.306C102.693 161.126 103.552 161.906 104.438 162.646C109.684 167.009 116.041 169.852 122.794 170.856H122.807C123.547 170.923 124.274 171.015 125.014 171.121C136.775 172.747 147.797 177.771 156.73 185.598C160.179 188.626 163.272 192.037 165.954 195.765C166.139 196.003 166.126 196.003 166.139 196.003C166.152 196.003 166.139 196.003 166.324 195.765C176.024 182.293 190.812 173.382 207.252 171.121C207.978 171.015 208.718 170.936 209.458 170.856H209.472C216.225 169.852 222.581 167.009 227.828 162.646C228.713 161.906 229.572 161.126 230.391 160.306C234.673 156.022 237.858 150.76 239.668 144.969V144.956C241.439 138.108 241.941 130.995 241.215 123.974Z" fill="white"/>
<path d="M15.9375 285.114C13.4662 284.096 11.3518 282.43 9.5942 280.116C7.83659 277.79 6.95117 274.722 6.95117 270.901C6.95117 265.203 9.5942 261.157 14.8803 258.764C20.1663 256.371 27.0778 255.168 35.6148 255.168H38.9847C38.9847 247.817 37.9671 242.806 35.9452 240.096C33.9233 237.399 31.0027 236.05 27.1836 236.05C23.8137 236.05 21.1178 236.764 19.0959 238.192C17.074 239.62 15.6467 242.092 14.8274 245.609H9.766C9.766 243.058 9.91137 241.061 10.2153 239.594C10.5193 238.126 11.299 236.764 12.5808 235.495C13.9288 234.146 16.1621 233.155 19.2677 232.52C22.3733 231.886 25.7695 231.568 29.4434 231.568C35.5091 231.568 40.3062 233.195 43.8347 236.46C47.3499 239.726 49.1207 245.966 49.1207 255.181V285.537H43.4778L39.5397 280.473H38.9847C37.6368 282.192 35.6545 283.66 33.0247 284.863C30.3948 286.066 27.1439 286.661 23.2455 286.661C20.8535 286.634 18.4087 286.132 15.9375 285.114ZM34.4783 279.773C36.1302 278.57 37.6235 276.93 38.9715 274.828V259.65H35.6016C30.0513 259.65 25.677 260.681 22.4525 262.744C19.228 264.806 17.6158 267.517 17.6158 270.901C17.6158 274.352 18.6466 276.996 20.7081 278.834C22.7697 280.672 25.2938 281.584 28.2936 281.584C30.7781 281.571 32.8397 280.976 34.4783 279.773Z" fill="white"/>
<path d="M66.2342 303.835C61.7807 301.059 59.5474 296.643 59.5474 290.574C59.5474 287.124 60.7103 284.122 63.0362 281.584C65.362 279.032 68.3222 277.168 71.9167 275.965C68.9169 274.312 67.4236 272.065 67.4236 269.222C67.4236 267.728 67.7672 266.565 68.4412 265.732C69.1151 264.912 70.0931 264.013 71.3617 263.035C68.9565 261.832 66.9611 259.967 65.3488 257.416C63.7366 254.864 62.9304 251.876 62.9304 248.425C62.9304 237.187 70.0534 231.555 84.2861 231.555H105.06V234.371L97.7524 235.495V236.064C100.078 237.267 101.968 238.933 103.422 241.061C104.889 243.203 105.615 245.649 105.615 248.425C105.615 259.663 98.4924 265.296 84.2597 265.296C76.3967 265.296 72.4586 266.604 72.4586 269.235C72.4586 271.866 76.3967 273.175 84.2597 273.175C91.528 273.175 97.4616 274.616 102.074 277.499C106.686 280.381 108.985 284.744 108.985 290.601C108.985 296.669 106.752 301.098 102.298 303.862C97.8449 306.638 91.832 308.026 84.2597 308.026C76.7006 308 70.6877 306.612 66.2342 303.835ZM94.9375 300.292C97.5541 298.15 98.8757 294.911 98.8757 290.561C98.8757 283.065 94.3825 278.755 85.3962 277.631L79.2115 277.076C76.1324 278.279 73.7801 279.958 72.1282 282.139C70.4763 284.321 69.6569 287.124 69.6569 290.574C69.6569 294.924 70.9653 298.163 73.5951 300.305C76.2117 302.447 79.7798 303.505 84.2729 303.505C88.7661 303.505 92.3209 302.434 94.9375 300.292ZM92.4134 258.249C94.475 256.186 95.5058 252.907 95.5058 248.412C95.5058 244.142 94.475 240.916 92.4134 238.747C90.3519 236.579 87.6428 235.482 84.2597 235.482C80.8766 235.482 78.1675 236.513 76.1059 238.576C74.0444 240.638 73.0136 243.917 73.0136 248.412C73.0136 252.907 74.0444 256.186 76.1059 258.249C78.1675 260.311 80.8766 261.342 84.2597 261.342C87.6428 261.342 90.3519 260.311 92.4134 258.249Z" fill="white"/>
<path d="M119.333 237.677C118.289 235.839 116.188 234.927 113.042 234.927H111.919V232.679H120.905C123.747 232.679 125.901 233.076 127.368 233.856C128.835 234.636 129.852 235.931 130.46 237.729H131.028C132.376 236.011 134.187 234.543 136.473 233.34C138.759 232.137 141.442 231.542 144.508 231.542C147.508 231.542 149.754 232.11 151.247 233.234C152.516 234.213 153.838 235.892 155.186 238.298L150.692 241.669C149.873 240.546 148.671 239.699 147.098 239.144C145.525 238.576 143.728 238.298 141.706 238.298C139.46 238.298 137.398 238.8 135.521 239.818C133.645 240.836 132.152 242.198 131.028 243.917V285.511H120.919V246.165C120.905 242.344 120.377 239.514 119.333 237.677Z" fill="white"/>
<path d="M172.035 282.985C168.282 280.553 165.441 277.234 163.498 273.03C161.555 268.839 160.577 264.185 160.577 259.095C160.577 254.005 161.555 249.351 163.498 245.16C165.441 240.969 168.295 237.65 172.035 235.204C175.775 232.772 180.202 231.555 185.29 231.555C190.378 231.555 194.805 232.772 198.545 235.204C202.284 237.637 205.139 240.955 207.081 245.16C209.024 249.364 210.002 254.005 210.002 259.095C210.002 264.198 209.024 268.839 207.081 273.03C205.139 277.234 202.284 280.54 198.545 282.985C194.791 285.418 190.378 286.635 185.29 286.635C180.202 286.635 175.775 285.418 172.035 282.985ZM192.664 279.098C194.805 277.076 196.443 274.299 197.606 270.782C198.769 267.266 199.351 263.365 199.351 259.095C199.351 254.824 198.769 250.924 197.606 247.407C196.443 243.891 194.791 241.114 192.664 239.091C190.523 237.068 188.078 236.05 185.303 236.05C182.528 236.05 180.083 237.068 177.942 239.091C175.801 241.114 174.163 243.891 173 247.407C171.837 250.937 171.255 254.824 171.255 259.095C171.255 263.365 171.837 267.266 173 270.782C174.163 274.312 175.814 277.076 177.942 279.098C180.083 281.121 182.528 282.139 185.303 282.139C188.065 282.139 190.523 281.121 192.664 279.098Z" fill="white"/>
<path d="M223.164 285.061C221.962 284.017 221.367 282.629 221.367 280.897C221.367 279.244 221.962 277.75 223.164 276.402C224.367 275.053 225.781 274.379 227.433 274.379C229.151 274.379 230.591 275.053 231.754 276.402C232.917 277.75 233.498 279.244 233.498 280.897C233.498 282.615 232.904 284.004 231.701 285.061C230.499 286.106 229.071 286.635 227.433 286.635C225.794 286.635 224.367 286.106 223.164 285.061Z" fill="white"/>
<path d="M248.009 237.677C246.965 235.839 244.863 234.927 241.718 234.927H239.472V232.679H249.581C252.356 232.679 254.431 233.036 255.819 233.75C257.206 234.464 258.198 235.76 258.792 237.624C259.387 239.501 259.691 242.344 259.691 246.165V285.511H249.581V246.165C249.581 242.344 249.053 239.514 248.009 237.677ZM249.409 223.781C248.167 222.353 247.559 220.674 247.559 218.718C247.559 217.144 248.022 215.901 248.96 215.002C249.898 214.103 251.154 213.654 252.726 213.654C254.444 213.654 255.925 214.368 257.167 215.796C258.409 217.224 259.017 218.903 259.017 220.859C259.017 222.433 258.554 223.675 257.616 224.574C256.678 225.474 255.422 225.923 253.85 225.923C252.119 225.923 250.638 225.209 249.409 223.781Z" fill="#FAB737"/>
<path d="M275.641 237.677C274.597 235.839 272.496 234.927 269.351 234.927H267.104V232.679H277.214C279.989 232.679 282.104 233.049 283.557 233.803C285.024 234.556 286.081 235.68 286.755 237.174H287.324C288.896 235.601 290.931 234.266 293.442 233.181C295.953 232.097 298.781 231.555 301.926 231.555C307.543 231.555 312.128 233.049 315.697 236.05C319.251 239.052 321.036 244.3 321.036 251.797V285.524H310.926V251.797C310.926 246.548 309.75 242.714 307.384 240.268C305.019 237.835 302.085 236.619 298.557 236.619C294.579 236.619 290.839 238.602 287.324 242.582V285.537H277.214V246.191C277.227 242.344 276.699 239.514 275.641 237.677Z" fill="#FAB737"/>
</g>
<defs>
<clipPath id="clip0_2589_3263">
<rect width="328" height="308" fill="white"/>
</clipPath>
</defs>
</svg>
