<svg width="107" height="28" viewBox="0 0 107 28" fill="none" xmlns="http://www.w3.org/2000/svg">
<path d="M16.1958 8.17412C16.1958 9.74946 15.4273 11.2273 14.1383 12.1338C13.9432 12.2416 13.7532 12.3562 13.5683 12.4794C12.1733 13.4064 11.1137 14.7577 10.5471 16.333C10.542 16.3484 10.5351 16.3638 10.53 16.3792C10.2527 17.1575 10.1021 17.9751 10.0815 18.803V13.4885C10.0867 13.2781 10.1004 13.0678 10.1226 12.8574C10.1877 12.2467 10.3246 11.6447 10.53 11.0648C11.4064 8.58634 13.4057 6.82627 15.7542 6.15234C16.0469 6.78693 16.1958 7.47625 16.1958 8.17412Z" fill="white"/>
<path d="M12.4767 4.56993C12.4767 5.80147 12.0368 6.90472 11.3076 7.74798C11.2648 7.78732 11.2237 7.82837 11.1826 7.86942C11.1005 7.95152 11.0217 8.03705 10.9464 8.12428C10.2292 8.95044 9.81324 9.99553 9.76874 11.0902C9.72423 9.99724 9.30828 8.95044 8.59107 8.12428C8.51575 8.03705 8.43701 7.95152 8.35485 7.86942C8.31377 7.82837 8.27269 7.78732 8.2299 7.74798C7.50241 6.90643 7.0625 5.80147 7.0625 4.56993C7.0625 2.72434 8.1135 1.03953 9.77045 0.223633C11.4274 1.03782 12.4767 2.72434 12.4767 4.56993Z" fill="white"/>
<path d="M3.33936 8.17412C3.33936 9.74946 4.10792 11.2273 5.39685 12.1338C5.59027 12.2416 5.78027 12.3562 5.96685 12.4794C7.36191 13.4064 8.42147 14.7577 8.98805 16.333C8.99318 16.3484 9.00003 16.3638 9.00516 16.3792C9.28246 17.1575 9.43309 17.9751 9.45364 18.803V13.4885C9.4485 13.2782 9.43481 13.0678 9.41255 12.8574C9.34751 12.2467 9.21057 11.6447 9.00516 11.0648C8.12876 8.58634 6.12947 6.82627 3.78098 6.15234C3.48999 6.78693 3.33936 7.47625 3.33936 8.17412Z" fill="white"/>
<path d="M19.4877 16.2625C19.3525 14.9899 18.9091 13.7686 18.1954 12.7064C17.9711 12.6979 17.7469 12.6979 17.5244 12.7081C17.0399 12.7304 16.5589 12.7971 16.0865 12.91L16.0882 12.9134L16.0814 12.9117C15.9085 12.9527 15.7373 13.0006 15.5661 13.0519C13.4573 13.7053 11.648 15.2396 10.71 17.3811C10.633 17.5556 10.5628 17.7352 10.4977 17.9165C10.3402 18.3629 10.2221 18.8213 10.1468 19.29C10.116 19.4833 10.092 19.6783 10.0749 19.8716C10.2016 19.9023 10.33 19.928 10.4584 19.9468C10.9034 20.0152 11.3553 20.0221 11.8021 19.9673C11.8517 19.9605 11.9013 19.9537 11.951 19.9468C12.0674 19.9195 12.1855 19.8972 12.307 19.8784C13.9605 19.4918 15.2906 18.2688 15.8161 16.6542C14.9414 17.3965 13.8322 17.8019 12.6853 17.8002C12.5997 17.8002 12.5141 17.7985 12.4286 17.7933C13.2878 16.2762 14.8986 15.3405 16.6428 15.3422C16.7267 15.3422 16.8106 15.344 16.8927 15.3491C16.8944 15.3491 16.8979 15.3491 16.8996 15.3491C16.8979 15.3525 16.8944 15.3576 16.8927 15.3611C16.8962 15.438 16.8979 15.5167 16.8979 15.5937C16.8979 17.7301 15.496 19.6133 13.4504 20.2308C13.3683 20.2547 13.2844 20.2786 13.2005 20.2992C12.723 20.4429 12.2694 20.6601 11.8585 20.944C11.737 21.0278 11.6189 21.1168 11.5042 21.2109C11.3895 21.3049 11.28 21.4058 11.1721 21.5136C10.8418 21.8437 10.5611 22.22 10.3368 22.6305C10.0116 23.2275 9.81817 23.8877 9.76682 24.5651C9.67952 23.4122 9.18141 22.3295 8.36149 21.5136C8.25537 21.4076 8.14582 21.3066 8.02942 21.2109C7.91645 21.1168 7.79834 21.0278 7.67509 20.944C7.26428 20.6618 6.81067 20.4446 6.33139 20.2992C6.24751 20.2786 6.16364 20.2564 6.08148 20.2308C4.03425 19.6133 2.63406 17.7301 2.63406 15.5937C2.63406 15.515 2.63577 15.438 2.6392 15.3611C2.63577 15.3576 2.63406 15.3525 2.63235 15.3491H2.6392C2.72136 15.344 2.80523 15.3422 2.88911 15.3422C4.63164 15.344 6.24067 16.2796 7.10166 17.7933C7.01608 17.7985 6.93049 17.8002 6.8449 17.8002C5.69805 17.8019 4.58885 17.3965 3.71416 16.6542C4.23795 18.2688 5.56967 19.4918 7.2232 19.8784C7.34302 19.8972 7.46113 19.9195 7.57923 19.9468C7.62887 19.9537 7.67852 19.9605 7.72816 19.9673C8.17492 20.0221 8.62681 20.0152 9.07186 19.9468C9.20195 19.9263 9.33033 19.9023 9.45528 19.8716C9.43817 19.6783 9.41592 19.4833 9.38339 19.29C9.30808 18.823 9.18997 18.3629 9.03249 17.9165C8.96744 17.7335 8.89726 17.5556 8.82024 17.3811C7.88221 15.2379 6.07292 13.7053 3.96407 13.0519C3.79461 12.9989 3.62344 12.9527 3.44884 12.9117L3.442 12.9134L3.44371 12.91C2.97127 12.7988 2.49028 12.7304 2.00586 12.7081C1.78334 12.6979 1.5591 12.6979 1.33486 12.7064C0.621074 13.7686 0.176026 14.9899 0.042511 16.2625C-0.0533456 17.1724 0.0134121 18.091 0.237648 18.977V18.9787C0.470443 19.7279 0.882969 20.4086 1.43928 20.9628C1.54541 21.0689 1.65667 21.1698 1.77135 21.2656C2.45091 21.83 3.27425 22.1978 4.14894 22.3278H4.15065C4.24651 22.3363 4.34065 22.3483 4.43651 22.362C5.95994 22.5724 7.38752 23.2224 8.54465 24.235C8.99141 24.6267 9.39195 25.068 9.73943 25.5503C9.7634 25.5811 9.76168 25.5811 9.76339 25.5811C9.76511 25.5811 9.7634 25.5811 9.78736 25.5503C11.0438 23.8073 12.9592 22.6545 15.0886 22.362C15.1827 22.3483 15.2786 22.3381 15.3744 22.3278H15.3761C16.2508 22.1978 17.0742 21.83 17.7537 21.2656C17.8684 21.1698 17.9797 21.0689 18.0858 20.9628C18.6404 20.4086 19.0529 19.7279 19.2874 18.9787V18.977C19.5168 18.091 19.5818 17.1707 19.4877 16.2625Z" fill="white"/>
<path d="M28.1162 21.89C27.4807 21.6285 26.9369 21.2006 26.4849 20.6063C26.0329 20.0086 25.8052 19.2207 25.8052 18.2392C25.8052 16.7755 26.4849 15.7363 27.8443 15.1216C29.2038 14.5069 30.9813 14.1978 33.1768 14.1978H34.0434C34.0434 12.3096 33.7817 11.0224 33.2617 10.3262C32.7417 9.63343 31.9907 9.28703 31.0085 9.28703C30.1418 9.28703 29.4485 9.47042 28.9285 9.8372C28.4085 10.204 28.0415 10.8391 27.8308 11.7424H26.5291C26.5291 11.087 26.5665 10.5742 26.6446 10.1972C26.7228 9.82022 26.9233 9.47042 27.253 9.14439C27.5996 8.79798 28.174 8.54327 28.9727 8.38026C29.7714 8.21725 30.6448 8.13574 31.5896 8.13574C33.1496 8.13574 34.3833 8.55346 35.2907 9.39231C36.1947 10.2311 36.6502 11.8341 36.6502 14.2012V21.9987H35.1989L34.1862 20.698H34.0434C33.6968 21.1395 33.187 21.5165 32.5106 21.8255C31.8343 22.1345 30.9983 22.2874 29.9957 22.2874C29.3805 22.2806 28.7518 22.1515 28.1162 21.89ZM32.8845 20.518C33.3093 20.2089 33.6934 19.7878 34.04 19.2478V15.3491H33.1734C31.746 15.3491 30.621 15.614 29.7918 16.1438C28.9625 16.6736 28.5479 17.3698 28.5479 18.2392C28.5479 19.1256 28.813 19.8048 29.3431 20.2769C29.8733 20.7489 30.5225 20.9833 31.2939 20.9833C31.9329 20.9799 32.4631 20.827 32.8845 20.518Z" fill="white"/>
<path d="M41.0512 26.6994C39.9059 25.9862 39.3315 24.8519 39.3315 23.2931C39.3315 22.4067 39.6306 21.6358 40.2288 20.9837C40.8269 20.3283 41.5882 19.8494 42.5126 19.5404C41.7412 19.1159 41.3571 18.5385 41.3571 17.8084C41.3571 17.4246 41.4455 17.1257 41.6188 16.9118C41.7921 16.7012 42.0436 16.4703 42.3699 16.219C41.7514 15.9099 41.2382 15.4311 40.8235 14.7756C40.4089 14.1202 40.2016 13.3526 40.2016 12.4663C40.2016 9.57956 42.0334 8.13281 45.6937 8.13281H51.0364V8.85618L49.1569 9.14485V9.29089C49.7551 9.59994 50.2411 10.0278 50.6149 10.5746C50.9922 11.1248 51.1791 11.7531 51.1791 12.4663C51.1791 15.353 49.3473 16.7997 45.687 16.7997C43.6648 16.7997 42.652 17.1359 42.652 17.8118C42.652 18.4876 43.6648 18.8238 45.687 18.8238C47.5562 18.8238 49.0822 19.194 50.2683 19.9343C51.4544 20.6747 52.0458 21.7954 52.0458 23.2999C52.0458 24.8587 51.4714 25.9964 50.3261 26.7062C49.1807 27.4194 47.6344 27.776 45.687 27.776C43.7429 27.7692 42.1966 27.4126 41.0512 26.6994ZM48.433 25.7892C49.106 25.2391 49.4458 24.407 49.4458 23.2897C49.4458 21.3641 48.2903 20.257 45.9792 19.9683L44.3887 19.8256C43.5968 20.1347 42.9919 20.566 42.567 21.1264C42.1422 21.6867 41.9315 22.4067 41.9315 23.2931C41.9315 24.4104 42.2679 25.2425 42.9443 25.7926C43.6172 26.3428 44.5348 26.6145 45.6904 26.6145C46.8459 26.6145 47.7601 26.3394 48.433 25.7892ZM47.7839 14.9896C48.3141 14.4598 48.5792 13.6175 48.5792 12.4629C48.5792 11.3659 48.3141 10.5373 47.7839 9.9803C47.2537 9.42334 46.557 9.14146 45.687 9.14146C44.8169 9.14146 44.1202 9.40636 43.59 9.93615C43.0598 10.4659 42.7947 11.3082 42.7947 12.4629C42.7947 13.6175 43.0598 14.4598 43.59 14.9896C44.1202 15.5194 44.8169 15.7843 45.687 15.7843C46.557 15.7843 47.2537 15.5194 47.7839 14.9896Z" fill="white"/>
<path d="M54.7069 9.7047C54.4384 9.23264 53.898 8.99831 53.0892 8.99831H52.8003V8.42097H55.1114C55.8421 8.42097 56.396 8.52286 56.7733 8.72323C57.1505 8.9236 57.4122 9.25642 57.5685 9.71829H57.7147C58.0613 9.27679 58.527 8.89982 59.1149 8.59078C59.7029 8.28173 60.3928 8.12891 61.1813 8.12891C61.9528 8.12891 62.5305 8.27494 62.9146 8.56361C63.2408 8.81492 63.5807 9.24623 63.9274 9.86432L62.7718 10.7303C62.5611 10.4417 62.2518 10.2243 61.8474 10.0817C61.443 9.93564 60.9808 9.86432 60.4608 9.86432C59.883 9.86432 59.3528 9.99337 58.8702 10.2549C58.3876 10.5164 58.0036 10.8662 57.7147 11.3077V21.9919H55.1147V11.885C55.1113 10.9035 54.9754 10.1768 54.7069 9.7047Z" fill="white"/>
<path d="M68.2606 21.3437C67.2954 20.7188 66.5647 19.8664 66.0651 18.7864C65.5655 17.7099 65.314 16.5144 65.314 15.2069C65.314 13.8994 65.5655 12.704 66.0651 11.6274C66.5647 10.5508 67.2988 9.69842 68.2606 9.07014C69.2224 8.44525 70.3609 8.13281 71.6694 8.13281C72.9778 8.13281 74.1164 8.44525 75.0782 9.07014C76.04 9.69503 76.7741 10.5475 77.2737 11.6274C77.7733 12.7074 78.0248 13.8994 78.0248 15.2069C78.0248 16.5178 77.7733 17.7099 77.2737 18.7864C76.7741 19.8664 76.04 20.7154 75.0782 21.3437C74.113 21.9686 72.9778 22.281 71.6694 22.281C70.3609 22.281 69.2224 21.9686 68.2606 21.3437ZM73.5658 20.3453C74.1164 19.8256 74.5378 19.1125 74.8369 18.2091C75.136 17.3057 75.2855 16.3039 75.2855 15.2069C75.2855 14.11 75.136 13.1081 74.8369 12.2048C74.5378 11.3014 74.113 10.5882 73.5658 10.0686C73.0152 9.54899 72.3865 9.28749 71.6728 9.28749C70.9591 9.28749 70.3303 9.54899 69.7797 10.0686C69.2292 10.5882 68.8077 11.3014 68.5087 12.2048C68.2096 13.1115 68.06 14.11 68.06 15.2069C68.06 16.3039 68.2096 17.3057 68.5087 18.2091C68.8077 19.1159 69.2326 19.8256 69.7797 20.3453C70.3303 20.8649 70.9591 21.1264 71.6728 21.1264C72.3831 21.1264 73.0152 20.8649 73.5658 20.3453Z" fill="white"/>
<path d="M81.41 21.8769C81.1007 21.6086 80.9478 21.252 80.9478 20.8071C80.9478 20.3826 81.1007 19.9988 81.41 19.6524C81.7192 19.306 82.0829 19.1328 82.5077 19.1328C82.9495 19.1328 83.32 19.306 83.6191 19.6524C83.9181 19.9988 84.0677 20.3826 84.0677 20.8071C84.0677 21.2486 83.9147 21.6052 83.6055 21.8769C83.2962 22.1452 82.9291 22.281 82.5077 22.281C82.0863 22.281 81.7192 22.1452 81.41 21.8769Z" fill="white"/>
<path d="M87.7995 9.70493C87.531 9.23286 86.9906 8.99854 86.1818 8.99854H85.604V8.4212H88.2039C88.9177 8.4212 89.4512 8.51289 89.8081 8.69628C90.1649 8.87967 90.4198 9.21249 90.5728 9.69134C90.7257 10.1736 90.8039 10.9038 90.8039 11.8852V21.9921H88.2039V11.8852C88.2039 10.9038 88.068 10.177 87.7995 9.70493ZM88.1598 6.13561C87.8403 5.76882 87.684 5.33752 87.684 4.83489C87.684 4.43076 87.8029 4.11152 88.0442 3.88058C88.2855 3.64965 88.6084 3.53418 89.0128 3.53418C89.4546 3.53418 89.8353 3.71757 90.1548 4.08435C90.4742 4.45113 90.6306 4.88244 90.6306 5.38506C90.6306 5.7892 90.5116 6.10844 90.2703 6.33937C90.029 6.57031 89.7061 6.68578 89.3017 6.68578C88.8565 6.68578 88.4758 6.50239 88.1598 6.13561Z" fill="#FAB737"/>
<path d="M94.906 9.70521C94.6375 9.23315 94.0971 8.99882 93.2882 8.99882H92.7104V8.42148H95.3104C96.0241 8.42148 96.5679 8.51657 96.9417 8.71015C97.319 8.90373 97.5909 9.1924 97.7642 9.57616H97.9103C98.3148 9.17202 98.8382 8.82901 99.4839 8.55053C100.13 8.27205 100.857 8.13281 101.666 8.13281C103.11 8.13281 104.29 8.51657 105.207 9.28749C106.121 10.0584 106.58 11.4067 106.58 13.3323V21.9958H103.98V13.3323C103.98 11.984 103.678 10.9991 103.069 10.3709C102.461 9.74597 101.707 9.43352 100.799 9.43352C99.7762 9.43352 98.8144 9.94294 97.9103 10.9652V21.9992H95.3104V11.8923C95.3138 10.904 95.1778 10.1773 94.906 9.70521Z" fill="#FAB737"/>
</svg>
